<svg xmlns="http://www.w3.org/2000/svg" xmlns:xlink="http://www.w3.org/1999/xlink" width="190" height="108" viewBox="0 0 190 108">
    <defs>
        <filter id="ys4urlzdxa" width="131.5%" height="131.5%" x="-15.8%" y="-13.8%" filterUnits="objectBoundingBox">
            <feOffset dy="2" in="SourceAlpha" result="shadowOffsetOuter1"/>
            <feGaussianBlur in="shadowOffsetOuter1" result="shadowBlurOuter1" stdDeviation="5"/>
            <feColorMatrix in="shadowBlurOuter1" values="0 0 0 0 0.00392156863 0 0 0 0 0.447058824 0 0 0 0 0.733333333 0 0 0 0.368006993 0"/>
        </filter>
        <filter id="xsj0f3vxzc" width="131.5%" height="131.5%" x="-15.8%" y="-13.8%" filterUnits="objectBoundingBox">
            <feOffset dy="2" in="SourceAlpha" result="shadowOffsetOuter1"/>
            <feGaussianBlur in="shadowOffsetOuter1" result="shadowBlurOuter1" stdDeviation="5"/>
            <feColorMatrix in="shadowBlurOuter1" values="0 0 0 0 0.00392156863 0 0 0 0 0.447058824 0 0 0 0 0.733333333 0 0 0 0.368006993 0"/>
        </filter>
        <circle id="wrss86yy1b" cx="113.217" cy="50.783" r="50.783"/>
        <circle id="y92seoj91d" cx="113.217" cy="50.783" r="50.783"/>
        <path id="sisg8uc3be" d="M0 0.545L15.307 0.545 15.307 20.573 0 20.573z"/>
        <path id="iae3bflsdg" d="M0.727 0.533L3.393 0.533 3.393 4.939 0.727 4.939z"/>
    </defs>
    <g fill="none" fill-rule="evenodd">
        <g>
            <g>
                <g transform="translate(-869) translate(869 -6)">
                    <use fill="#000" filter="url(#ys4urlzdxa)" xlink:href="#wrss86yy1b"/>
                    <use fill="#FFF" xlink:href="#wrss86yy1b"/>
                </g>
                <path fill="#F5FBFF" d="M36 3H190V82H36z" transform="translate(-869) translate(869 -6)"/>
                <g transform="translate(-869) translate(869 -6)">
                    <use fill="#000" filter="url(#xsj0f3vxzc)" xlink:href="#y92seoj91d"/>
                    <use fill="#F5FBFE" xlink:href="#y92seoj91d"/>
                </g>
                <path fill="#F5FBFE" d="M0 4H180V82H0z" transform="translate(-869) translate(869 -6)"/>
                <g>
                    <path fill="#0072BC" d="M49.095 33.69L47.226 33.69 49.426 25.689 44.6 25.683 44.607 21.05 46.425 21.054 46.422 23.784 51.392 23.788 51.392 25.33z" transform="translate(-869) translate(869 -6) translate(18 13.754)"/>
                    <g>
                        <path fill="#0072BC" d="M58.826 33.668l-.006-8.028-3.234.002.005 6.176c0 .865-1.018 1.852-1.885 1.85l-1.547.002v-1.903h1.12c.154 0 .407-.237.407-.392l-.003-5.73h-1.225V23.74l8.265-.008.008 9.936h-1.905zM32.204 45.849L32.204 43.951 36.883 43.954 36.888 37.849 32.207 37.846 32.209 35.952 38.786 35.952 38.782 43.954 39.663 43.954 39.661 45.853zM41.546 40.731L41.546 37.85 40.257 37.853 40.259 35.951 43.447 35.952 43.444 40.734zM44.378 45.855L44.375 43.956 49.053 43.956 49.054 37.852 44.378 37.85 44.38 35.953 50.955 35.956 50.952 43.958 51.834 43.96 51.832 45.855zM58.565 45.858l-3.812-6.288-.005 6.286-1.914.001.001-5.952c0-.423.136-.727.475-.997l.677-.529-1.472-2.422 2.186-.002 3.847 6.377v-6.375l1.917.005-.002 5.524c0 .693-.238.981-.747 1.322l-.577.39 1.593 2.66h-2.167zM46.375 58.018L46.376 50.022 45.086 50.019 45.086 48.123 48.272 48.123 48.272 58.018zM54.372 58.018h-4.897v-1.896l4.83-.002c.204 0 .493-.303.49-.49l.002-5.118c0-.186-.288-.494-.494-.49l-2.928-.003-.002 2.307 1.543.002v1.795l-3.438-.004-.004-5.997 4.898.001c1.083.001 2.321 1.254 2.323 2.322l-.002 5.25c0 1.068-1.238 2.322-2.32 2.323M58.829 52.902L58.829 50.02 57.542 50.018 57.543 48.124 60.731 48.124 60.727 52.902zM8.971 25.645l.018-.118-.164-.267.002-.122-.06.03-.03-.05-.01.072-.084.048-.03-.042c-.008.083.007.175.007.175l.138-.078.213.352zM9.09 25.29l-.08.043.033.102.12-.064c.002-.002-.02-.106-.052-.167-.03-.053-.073-.1-.08-.105-.048-.029-.117-.046-.117-.043l.004.122c.004.004.053 0 .09.01l.083.102zM9.1 24.93c-.008.088.01.176.01.175l.124-.066.03-.003.025.02.058.096-.123.066.014.111.23-.123-.018-.11-.046.025-.094-.149c-.011-.021-.025-.034-.048-.042-.024-.007-.04-.007-.06.005l-.067.037-.034-.042zM9.37 24.918c.058.006.1.011.1.017 0 0-.003.055.006.093.012.034.043.09.043.09l.007.057.1-.056-.024-.107-.054.03-.031-.048-.006-.053c0-.004.093.018.15.04.056.024.143.064.143.062l.005-.002-.008-.104-.125-.046c-.003-.001.034-.077.011-.126-.024-.046-.112-.078-.11-.076l-.002.113.045.031.025.054s-.077-.032-.128-.046c-.054-.016-.146-.035-.146-.034v.11zM5.565 24.99l-.057-.03-.094.072.122.064.084-.064.056-.153.1.05.017.026-.002.033-.124.2.097-.031.118-.195c.011-.02.011-.037.008-.062-.008-.021-.018-.036-.036-.047l-.151-.081.006-.054c-.07.033-.154.093-.154.093l.057.031-.047.149zM5.94 24.981c-.001 0 .06.067.018.107-.037.034-.099.073-.099.073-.003.006.13-.02.16-.04.054-.028.063-.065.054-.103l-.023-.099-.11.062zM6.12 25.293l-.08-.042-.077.076.12.066c.003.004.088-.071.128-.128.033-.047.055-.108.055-.113.004-.057-.017-.12-.02-.118l-.107.065c-.003.002.024.038.033.08l-.052.114zM6.457 25.124c-.083.033-.155.094-.155.094l.122.066.018.025-.007.028-.06.097-.12-.067-.098.067.23.125.09-.07-.042-.027.091-.147c.012-.023.015-.037.013-.062-.005-.022-.013-.035-.036-.047l-.065-.037.019-.045zM6.602 25.555l-.078-.04-.083.074.123.066c.001.002.091-.069.129-.128.03-.046.053-.108.053-.116.002-.052-.014-.118-.018-.118l-.108.068s.024.038.035.078l-.053.116zM6.794 25.427s.037.1.023.125l-.121.196.005.004.106-.054.002-.007c.002 0 .066-.102.105-.17.027-.04-.007-.156-.007-.153l-.113.059z" transform="translate(-869) translate(869 -6) translate(18 13.754)"/>
                        <g transform="translate(-869) translate(869 -6) translate(18 13.754) translate(0 10.701)">
                            <mask id="x2cjxieuof" fill="#fff">
                                <use xlink:href="#sisg8uc3be"/>
                            </mask>
                            <path fill="#0072BC" d="M4.75 3.902h1.533l.002-1.772 1.38-.938L9 2.131V3.9h1.54V2.823c.656.185 1.284.317 1.284.317v.759l1.575.005.009-.724 1.358.004-.011 1.509-14.226.005-.007-1.514h1.355l.007.719h1.571v-.764s.632-.13 1.292-.315l.004 1.079zM3.106 17.724c-.71-.22-1.279-.99-1.45-1.688l-.003-9.945c-.03-.394-.414-.845-.414-.845h12.81s-.39.453-.422.845v9.945c-.174.702-.742 1.47-1.453 1.688-.582.182-1.109.286-1.792.407-.829.147-2.132.509-2.648 1.182h-.19c-.437-.575-1.445-.991-2.256-1.131-.135-.026-1.756-.324-2.182-.458zM7.668.544L5.773 1.89v1.45H5.31V2.082c-1.145.39-2.186.538-2.347.566v.692h-.534v-.69L0 2.648 0 5.208c.077 0 .149.008.218.019.467.085.773.396.956.854l-.008 9.967c.164.97.97 1.939 1.889 2.204.44.124 2.251.438 2.418.466.585.105 1.029.29 1.474.663.338.325.435.818.632 1.192.201-.376.444-.875.781-1.19.572-.478 1.15-.56 2.009-.734.806-.167 1.267-.224 1.882-.398.92-.264 1.713-1.232 1.88-2.199V6.085c.2-.532.58-.867 1.176-.878V2.65h-2.43v.69h-.543l.01-.7c-.05-.005-.186-.023-.386-.058-.438-.078-1.177-.232-1.967-.5L9.988 3.34h-.454l-.002-1.45L7.668.545zm3.588 5.57c-.055.074-.094.147-.133.215-.037.077-.068.137-.092.202h.17l.098.405-.171.003-.12.278.382.003.101-.263-.088-.426h.314l.077.039.031.068v.627l.176-.19V6.47l-.022-.08-.051-.07-.07-.056-.08-.015h-.469l-.053-.136zm-.883-.271l-.184.252c.042.042.047.08.047.131l-.005.239.072.066h.345c.054.152.034.223-.01.269-.04.044-.084.074-.128.09-.046.019-.09.025-.137.04l-.191.337c.01-.003.054-.012.12-.041.076-.019.15-.055.233-.097.081-.044.15-.094.204-.16.057-.069.093-.134.118-.21.023-.074.043-.149.045-.217.014-.076.017-.124.017-.14l-.02-.108-.067-.048-.412.002-.002-.232c-.002-.067-.006-.11-.016-.13l-.029-.043zm-.98.308l-.16.265.053.11-.001.157c-.04-.036-.086-.073-.123-.12l-.13-.142-.178-.16-.103-.088-.16.252c.142.094.213.15.207.164-.021.03-.04.072-.065.107-.025.04-.044.08-.055.13-.012.048-.016.094-.018.14l-.01.116-.07.138.314-.003.1-.281h-.167l-.01-.092.052-.212.123.118c.077.072.133.131.172.186.044.05.084.103.125.164l.129.165.138-.246-.219-.265c.047-.04.096-.088.143-.13.04-.052.06-.103.057-.141.004-.058-.022-.137-.07-.222l-.074-.11zm-1.449-.037c-.056.077-.103.153-.138.224-.033.068-.063.133-.083.193h.38l.069.034.033.082v.293l-.382-.004-.127.284h.711l.11-.284-.138.004v-.472l-.012-.081-.06-.09c-.023-.023-.055-.036-.091-.045l-.254-.004-.018-.134zm-.566.04l-.177.284c.012.001.048.02.109.052.064.045.094.091.096.139-.024.092-.042.136-.062.189l-.067.139c.047-.034.095-.068.14-.108.098-.084.162-.15.187-.197.03-.044.04-.09.04-.14l-.018-.084-.059-.08-.189-.194zm-.855-.041c-.057.078-.106.152-.14.225-.032.07-.061.133-.085.194h.381l.07.033.032.08-.003.295-.377-.004-.126.284h.708l.114-.28-.14-.004-.004-.465-.01-.084-.057-.09c-.02-.023-.055-.036-.093-.044l-.252-.001-.018-.14zm-.44.51L5.61 6.62l-.101.185.475.003.097-.184zm-1.034-.47l-.175.279c.013 0 .045.024.103.06.068.043.104.092.104.14-.03.09-.043.13-.065.188l-.063.136.136-.104c.099-.09.16-.154.186-.2.03-.044.043-.09.042-.137l-.018-.09-.061-.079-.189-.193zm-.807.022c-.028-.009-.077.037-.156.122-.078.083-.124.168-.127.243-.005.035.027.095.097.182.036.041.07.078.106.116l.091-.22-.063-.048-.018-.102c.07-.036.113-.02.177.003.095.034.15.078.177.133l.003.112-.002.086.002.094-.497.04-.132.281.71.003.107-.284.01-.072V6.72c0-.083 0-.127-.014-.186-.006-.058-.01-.087-.017-.087L4.6 6.355c-.037-.026-.082-.058-.12-.083-.038-.02-.093-.045-.153-.07-.04-.017-.07-.027-.084-.027zm-.708-.063l-.173.282c.052.045.103.089.155.141.051.05.077.09.074.126l.003.606.187-.255-.002-.55c0-.053-.04-.129-.12-.225l-.124-.125zm5.28 10.523l-.39.067c.064.109.191.177.254.279l-.04.462.327-.184.428.155c-.026-.109-.06-.21-.1-.313-.114-.204.193-.29.255-.45l-.336-.057c-.117-.044-.123-.21-.213-.29-.052.115-.105.229-.185.331zm-2.547-.016c-.143.018-.272.053-.397.092l.255.272-.04.447.326-.176.407.15c-.021-.15-.08-.285-.097-.435.076-.116.19-.201.247-.319l-.247-.05c-.19.046-.182-.196-.268-.299-.058.11-.112.22-.186.318zm1.237.98c-.136.03-.295.024-.413.084l.238.22c.059.166-.056.344.002.506l.337-.186c.132.034.247.143.38.144-.035-.144-.096-.288-.11-.438l.277-.28-.3-.072c-.145-.037-.164-.202-.232-.308-.05.118-.121.221-.179.33zM7.66 3.2c-.068.1-.153.198-.202.305l-.356.085c.02.133.14.172.203.282l-.02.469c.098-.08.198-.125.295-.18l.413.16c-.022-.153-.064-.286-.113-.41.06-.135.2-.207.28-.303-.072-.06-.096-.066-.12-.075l-.079-.017c-.03-.006-.064-.01-.096 0-.153-.036-.128-.226-.205-.316zm4.701 5.496c-.077.11-.12.227-.193.334-.145.044-.305.036-.435.1.091.102.196.16.269.268l-.026.426.174-.108c.064-.068.124-.084.182-.07.057.008.114.042.17.075.055.03.109.06.165.07l-.068-.418c.097-.109.196-.198.28-.305-.034.006-.063 0-.094-.007-.037-.005-.072-.013-.104-.022l-.114-.03c-.142-.09-.16-.223-.206-.313zm-1.119-1.169c-.077.095-.111.206-.185.3-.142.05-.31.066-.445.103l.279.266c.016.16-.067.317-.021.472l.293-.2.415.17c-.027-.143-.073-.287-.104-.434.077-.113.2-.204.269-.308l-.374-.079-.127-.29zm1.339-.278l-.181.318-.42.082c.053.06.09.109.154.142.227.127.052.404.082.595.105-.072.216-.135.328-.19l.407.16-.081-.329c-.076-.195.154-.275.233-.409-.058-.024-.122-.04-.19-.05l-.079-.013c-.032-.005-.067-.013-.1-.023-.063-.088-.086-.197-.153-.283zm-4.25.68c-.213-.036-.43-.057-.653-.057-2.17 0-3.936 1.848-3.938 4.117 0 2.035 1.423 3.735 3.28 4.062.211.038.429.058.653.058 2.173-.008 3.933-1.851 3.936-4.12 0-2.038-1.419-3.733-3.278-4.06zm-1.294 7.993c-1.798-.316-3.173-1.963-3.174-3.933C3.862 9.792 5.57 8 7.673 8.004c.218 0 .43.019.64.052 1.796.319 3.17 1.96 3.173 3.934-.002 2.198-1.715 3.99-3.814 3.99-.215 0-.43-.02-.636-.057zm1.757-3.742c-.13.033-.235.033-.339.033l-.013-.076.878-.033.038.076h-.564zm-1.114-2.23h-.181l-.025-.2.206-.111.162.136.023.174h-.185zm0 .217H7.44l.024-.099h.432c.008.032.032.056.016.1h-.233zm0 .099h.233l-.048.084h-.375l-.04-.084h.23zm0 .66l-.181.008v-.107h.357v.107l-.176-.009zm0 .444h.2v.159h-.397v-.159h.197zm0 .274l.097.02c.194.071.36.25.518.408.096.12.264.394.264.416-.04.01-.077.028-.117.01-.114-.135-.225-.285-.367-.382-.121-.088-.265-.161-.395-.188-.135.027-.275.1-.388.188-.145.097-.263.247-.368.382l-.12-.01c0-.022.159-.296.264-.416.152-.158.32-.337.519-.408l.093-.02zm.571.203l.136.146h.102v-.146H8.25zm.372.147h.304v-.147h-.304v.147zm.454 0h.186l-.079-.147h-.107v.146zm-1.053-.366l.083.093h1.077l.045-.093H8.023zm-.016-.258v.159h.28s.007-.106 0-.159h-.28zm1.088 0v.09h-.184v-.09h-.17l.002.09h-.172v-.09h-.164v.159h.894v-.159h-.206zm-1.334-.136h.28v-.182h-.28v.182zm.422-.182v.183h.358l-.087-.183h-.271zm-.168-.225v.107h.29l-.122-.107h-.168zm-.239-.127h.311l-.143-.207h-.168v.207zm1.15 1.6c.143 0 .257-.012.359.007l.082-.008.062.124c-.103.008-.206-.01-.319-.01-.048-.03-.103 0-.15-.009-.12.009-.243-.006-.338-.063h-.08c.113-.042.25-.053.383-.042zm-2.23.14l-.14-.042-.01-.128h.241l-.09.17zm-.34-.17v.086c-.052-.032-.145-.044-.209-.05l-.2-.007.41-.029zm.529-.166l-.043.076h-.847l.041-.076h.849zm.222-.257l-.138.146h-.095v-.146h.233zm-.68.15l.305-.004v-.146h-.304v.15zm-.15-.004h-.184l.09-.146h.094v.146zm1.06-.365l-.079.093H6.183l-.06-.093h1.214zm.01-.1h-.28v-.158h.28v.159zm-1.088-.158v.09h.184v-.09h.167v.09h.184v-.09h.16l.002.159h-.894v-.159h.197zm1.056-.136l.287.001v-.183h-.287v.182zm-.14-.182v.182h-.363l.097-.182h.266zm.172-.225l-.01.107h-.279l.111-.107h.178zm.229-.127h-.31l.143-.207h.167v.207zm.103-1.22c-.045.019-.14.127-.14.127l-.217-.103c.034.154.066.371.015.522-.046.092-.04.225-.006.324-.009.083-.09.15-.136.217-.104.133-.242.227-.377.311-.055.047-.072.118-.095.174-.008.068-.03.125-.05.193v.075l-.053-.075h-.225v.11H6.29v-.11h-.316v.344l.107.233-.31.49-.225.051c.059-.616-.077-1.075-.139-1.209l1.61-.562.137-.16-1.858.555-.06-.136 1.918-.557-.04-.135-1.958.516c-.03-.116.01-.2.08-.257.073-.068.171-.059.264-.068.099 0 .615-.008.942-.15.514-.219.794-.684.831-.785l.114.048.046-.071-.12-.078.064-.083.111.076-.049-.16c.024-.05.162-.142.162-.142.024.056.024.2.024.2h.11s0-.144.013-.2c0 0 .14.091.17.143-.023.038-.102.1-.102.1l.168-.017.055.083-.112.078.05.071s.062-.065.11-.048c.038.1.348.653.862.811.487.151.807.124.912.124.084.01.19 0 .253.068.074.058.113.141.103.235L8.24 10.16l-.033.135 1.908.557c.01.041-.032.092-.048.136l-1.851-.56.12.165 1.622.562c-.074.13-.209.593-.146 1.21l-.223-.052-.313-.49.116-.233v-.344h-.323l-.007.11H8.96v-.11h-.217l-.054.075-.01-.075c-.007-.068-.04-.125-.038-.193-.026-.056-.042-.127-.105-.174-.136-.084-.264-.178-.368-.311-.056-.068-.128-.134-.145-.217.034-.099.05-.232 0-.324-.053-.15-.016-.368.01-.522l-.207.103S7.73 9.5 7.68 9.48zm.03-.748c-.257-.004-.365.104-.45.263-.319.604-.704.895-.91.984-.22.098-.518.14-.904.13-.128-.005-.251.015-.35.09-.118.095-.216.219-.208.36.01.333.447.686.452 1.523.006.544-.331.884-.422 1.026-.009.048-.128.201.021.48 0 0 .14.26.435.27.114 0 .664-.025 1.026.156.632.32.73.836.776.925.062.116.172.225.289.26.11.024.156.027.217.027.082-.003.13-.003.206-.03.143-.05.238-.141.291-.259.062-.112.243-.631.702-.874.31-.164.621-.216 1.109-.2.1.002.16-.016.247-.069.039-.023.094-.075.094-.075s.07-.078.097-.135c.058-.115.068-.2.048-.327-.006-.059-.02-.093-.04-.149-.068-.172-.16-.25-.23-.425-.097-.24-.154-.346-.154-.648 0-.37.1-.71.23-.948.112-.206.239-.335.194-.526-.031-.138-.093-.27-.209-.364-.13-.1-.3-.092-.349-.09-.065.003-.574.035-.91-.126-.58-.274-.845-.933-.92-1.017-.077-.117-.117-.226-.377-.232zm.244 5.785l-.138-.02-.098.007c-.07.023-.16.045-.24.03-.03-.009-.049-.017-.07-.03l-.073.007-.073.02.073-.02.073-.007-.073.007-.073.02c.013.08.05.139.076.218.027.072.103.13.17.172.05.025.067.031.08.031l.085.012c.077-.027.167-.085.216-.176.031-.067.07-.126.11-.191l.032-.086-.077.006zm-.746-.098c-.055-.046-.073-.113-.114-.167.095-.065.18-.108.282-.112.095.004.199-.012.297-.027.07.006.14.015.207.027.101.018.205.044.293.079.11.02.122.02.14.02l-.112.113c-.056.026-.116.035-.17.029l-.091-.117c-.106-.01-.18.058-.266.09l-.067.005-.02-.07c-.092-.025-.193.007-.274.096l-.105.034zm2.517-.824l.103.028-.103-.028.103.028c-.276.063-.582.03-.862.094-.096.054-.215.065-.318.1-.051.01-.098.018-.142.024l-.09.006c-.061-.012-.103-.022-.13-.052l.003-.076-.067-.024c-.028 0-.06.01-.088.01-.08.008-.155.049-.237.06l.032-.116-.062-.006c-.089.015-.135.038-.187.048-.04.016-.068.05-.117.08-.013-.038-.006-.056.005-.07-.09-.031-.158.003-.23.04-.095.046-.187.083-.303.079h-.077c-.175 0-.29.02-.412.043-.041-.025-.079-.048-.123-.066-.306-.107-.5-.113-.586-.12.058-.054.118-.08.175-.09l.074.004.31.062-.274-.053.274.053c.107.021.191.021.279.023.029-.002.06-.002.092-.002.076.002.163-.021.242-.03.116-.04.234-.056.339-.1.064.006.094.025.133.033.101 0 .161-.012.227-.023.03-.004.062-.01.09-.011.036 0 .056.004.082.01.105.028.251.064.262.067.03.003.064.003.095.003l.148-.006c.142-.017.303-.024.445-.042l.307-.016c.197.01.396.02.588.036zM8.098 12.53l.16-.011c.142.005.278.005.42-.002.103 0 .217.013.321.007.118.017.246.033.368.04.152.027.301.052.445.101-.095.069-.23.045-.35.045l-.025-.07c-.111 0-.209.045-.312.025l-.038-.066c-.137.01-.255.085-.398.076l-.05-.076c-.185.01-.367.06-.54.101l-.036-.084c-.119-.035-.263-.035-.39-.025-.223.043-.448.068-.656.15h-.08c-.047-.082-.087-.082-.135-.082-.128 0-.24.041-.365.066l-.096-.116c-.082.007-.152.025-.225.041-.13-.04-.214-.01-.306.034-.166-.062-.277-.01-.39.034l.018-.077c.025-.076.11-.06.162-.084.221-.058.467-.107.704-.058.15.042.316.058.474.1.23.035.417-.11.631-.132.153-.017.303-.027.455.016l.234.047zm-.04.286h.102c.294.009.59-.116.885-.068l.056.085c.232-.1.496-.008.744.009.04-.009.096-.026.113.041-.106.058-.201.037-.303.019l-.336-.019c-.178.007-.36.007-.526.024-.187-.03-.315.025-.466.013-.144-.018-.294-.018-.431-.07-.048.016-.096.04-.153.052l.027-.077c-.136-.016-.25.008-.361.034-.168.048-.335.116-.519.142-.096-.01-.194-.015-.28-.034l-.087-.035c-.086.043-.19.035-.286.054-.048-.02-.107 0-.144-.028-.115.028-.22.06-.335.043-.058.033-.138.022-.201.017l-.07-.008c-.055.024-.12.008-.177-.024.128-.153.254-.161.375-.144.088-.033.152-.09.24-.067.05.009.086.024.128.058.04-.024.089-.05.136-.038l.078.038c.186-.076.407-.058.607-.024.058.007.105.057.16.033.08-.026.161-.033.24-.058.183-.027.375-.074.574-.043.071.016.137.068.21.075zm-.232.226c.046 0 .078-.056.134-.04.092 0 .176.05.27.05.042 0 .097-.01.146 0 .112-.01.239-.01.357-.034.2-.026.418-.032.624-.017.199.009.392.052.584.093l.105.022.062.127c-.105.016-.201 0-.296.006l-.007-.098c-.088-.008-.16.061-.24.061l-.046-.069c-.12-.018-.224.033-.33.091l-.024-.077c-.15.077-.351.086-.526.055-.068-.018-.151-.034-.24-.018-.111-.009-.231.032-.342 0v-.069c-.055.005-.097.032-.145.044l-.15.025-.012-.078c-.09-.007-.174.053-.252.085l-.074-.05c-.093-.008-.175.034-.25.083l-.019-.065c-.138.057-.297.065-.45.09-.055-.016-.119.009-.166-.04l.057-.062c-.09-.014-.179-.023-.255 0-.104.044-.225.12-.346.062-.07.066-.19.066-.278.04-.088-.025-.137.009-.184.026-.112.041-.236.056-.36.056l-.02-.082c.007-.04-.005-.102.043-.108.212 0 .394-.042.6-.042.24-.015.433-.075.632-.05.192.008.384.075.59.043.067-.008.137-.035.193-.06.111-.02.213-.067.32-.008.07-.048.156-.059.239-.033l.056.04zm.9.319c.04 0 .088.06.13.016.26-.092.55-.084.836-.058.16.022.32.058.456.148.008.059-.048.086-.087.11-.05.017-.103 0-.145-.033-.26-.122-.524-.143-.775-.118l-.096.01-.15.025-.072.025c-.088.023-.182.023-.273.04h-.096c-.04.011-.078-.007-.127-.007-.144-.017-.287-.093-.439-.097-.118-.011-.229-.011-.326 0-.048.004-.112 0-.158.023-.057.008-.113.016-.167.04-.13.024-.25.084-.395.101-.104-.008-.213-.008-.319-.033-.256-.044-.536-.108-.788-.027-.057.027-.13.027-.187.052-.103.044-.23.033-.319-.033.098-.068.203-.119.304-.16l.087.009c.105.017.217 0 .313-.017l.062-.036c.087.08.202.01.296-.022.073.066.175.058.265.032l.149-.016c.144.026.274.05.416.034.104-.008.21-.028.313-.05.064 0 .133.016.205.014h.084c.086-.014.165.002.247-.014.233-.017.47-.042.685.014l.071.028zm-.087.55c-.09.076-.176.16-.295.17-.05 0-.096.007-.144.007h-.088l-.072-.015c-.05-.011-.066-.023-.088-.034l-.013-.079c-.196-.043-.364.025-.52.08l-.026-.08c-.106.034-.208.078-.302.116l-.097.07c-.057-.047-.085-.084-.126-.108.16-.112.284-.124.406-.161-.122.037-.246.049-.365.11.12-.061.243-.073.365-.11.073-.018.143-.024.215-.018l.11.012c.071 0 .132-.023.196-.023.014-.006.113 0 .147.003.05.008.098.02.144.037.044.012.198.039.232.039.107-.008.199 0 .297-.015h.024zm-.96-4.527l-.19.121.19-.19.185.135-.157-.057-.028-.009z" mask="url(#x2cjxieuof)"/>
                        </g>
                        <path fill="#F58220" d="M113.868 38.722c-.016-.299-.04-.566-.07-.86l-4.11.47c.02.196.035.39.046.586l4.134-.196zM117.096 61.301c.312-.327.826-.902 1.123-1.243l-5.247-4.58c-.229.264-.636.713-.877.967l5.001 4.856zM68.794 50.43c-.25-.61-.468-1.21-.676-1.841l-4.098 1.37c.23.695.51 1.445.787 2.123l3.67-1.517M122.798 30.545c-.197-.59-.368-1.063-.598-1.638l-3.293 1.3c.192.478.358.94.524 1.434l3.367-1.096zM95.234 73.83c1.728 0 3.17-.132 4.825-.38l-.614-4.07c-1.475.223-2.694.32-4.25.337l.039 4.112zM70.235 59.738c-.4-.495-.787-1.004-1.157-1.524l-3.542 2.56c.419.582.845 1.163 1.294 1.718l3.405-2.754zM130.791 37.303c-.05-.733-.122-1.46-.216-2.178l4.002-.512c.114.846.232 1.648.289 2.51l-4.075.18zM114.902 46.538c-.672 1.988-1.635 3.842-2.836 5.513l-5.068-3.663c.841-1.174 1.522-2.493 1.992-3.888l5.912 2.038zM97.566 8.128l.204-2.31c.593.052 1.18.114 1.767.195.02.001.04.007.06.01l.002-.02.154-1.323c-1.573-.215-3.18-.323-4.814-.323-1.671-.003-3.314.114-4.922.338l.545 3.623c1.431-.198 2.894-.3 4.377-.3.882 0 1.757.038 2.619.109l.008.001zM86.525 47.764c.774.82 1.7 1.544 2.684 2.11l-1.59 2.794c-1.227-.71-2.435-1.64-3.405-2.66l2.31-2.244zM102.915 27.289c.306.197.608.407.895.626l4.69-6.22c-.457-.342-.87-.63-1.348-.938l-4.237 6.532zM82.406 61.574l-1.796 2.929c.693.4 1.4.774 2.126 1.118l.364-.777c.966.457 1.988.87 3.011 1.214l-.273.812v.001c1.405.472 2.916.841 4.413 1.092l.565-3.39c-2.947-.49-5.915-1.563-8.41-2.999" transform="translate(-869) translate(869 -6) translate(18 13.754)"/>
                        <path fill="#00B3F0" d="M29.843 25.392L27.678 25.387 27.656 33.671 25.658 33.664 25.677 25.384 23.506 25.375 23.512 23.735 29.847 23.748zM36.591 25.384L33.045 25.381 33.043 27.709 36.377 27.714 36.375 29.355 33.043 29.354 33.039 32.023 36.723 32.028 36.719 33.668 31.038 33.663 31.047 23.735 36.591 23.741zM38.07 23.745L40.07 23.741 40.071 32.024 43.616 32.024 43.616 33.667 38.07 33.667zM9.243 35.946l2.617 9.918-2.086-.002-.456-2.093-2.637-.003-.46 2.092-2.083-.001 2.632-9.914 2.473.003zm-.27 6.182l-.953-4.462h-.03l-.959 4.462h1.943zM15.509 43.284L15.554 43.284 17.032 35.953 19.1 35.954 16.814 45.868 14.244 45.868 11.977 35.947 14.116 35.951zM20.279 35.957L22.277 35.956 22.269 45.874 20.269 45.872zM26.993 43.297L27.032 43.296 28.512 35.962 30.578 35.964 28.293 45.88 25.725 45.88 23.456 35.957 25.595 35.962zM18.092 51.967L18.121 51.968 19.498 48.14 21.658 48.135 19.105 54.138 19.111 58.031 17.119 58.032 17.114 54.144 14.546 48.145 16.788 48.142zM26.365 48.131l2.628 9.887h-2.075l-.462-2.085-2.63.003-.454 2.088-2.078.005 2.606-9.894 2.465-.004zM26.11 54.3l-.964-4.452h-.025l-.95 4.453 1.94-.001zM35.545 48.122L35.547 49.757 32.015 49.763 32.018 52.083 35.338 52.076 35.344 53.711 32.02 53.718 32.025 58.014 30.034 58.014 30.021 48.128zM36.675 51.03c.067-.631.22-1.175.453-1.625.238-.45.574-.804 1.015-1.06.443-.251 1.037-.38 1.786-.38.746-.004 1.339.123 1.784.378.444.252.78.603 1.018 1.058.235.451.387.99.456 1.623.072.631.108 1.323.109 2.069 0 .757-.036 1.45-.104 2.077-.066.627-.217 1.166-.453 1.622-.234.448-.573.795-1.014 1.034-.443.243-1.04.364-1.782.363-.748 0-1.344-.12-1.789-.358-.44-.237-.776-.582-1.017-1.034-.236-.454-.387-.995-.458-1.62-.067-.627-.102-1.32-.106-2.075 0-.752.037-1.438.102-2.073m1.942 3.759c.034.473.099.848.193 1.137.1.292.239.499.417.635.18.132.417.201.712.201.296-.001.53-.069.714-.202.176-.136.314-.347.41-.634.098-.295.162-.67.195-1.138.03-.466.045-1.03.044-1.691 0-.666-.02-1.23-.048-1.692-.034-.457-.1-.84-.197-1.132-.097-.298-.236-.51-.414-.641-.18-.134-.42-.202-.714-.202s-.532.068-.71.202c-.181.132-.32.35-.412.64-.099.3-.164.68-.194 1.138-.032.463-.046 1.024-.045 1.689 0 .663.018 1.226.05 1.69M73.304 37.754c.043-.481.103-.958.178-1.433l6.834 1.056c-.058.346-.1.635-.132.988l-6.88-.61zM116.016 39.742c0 .02-.005.018-.005.037 0 .772-.048 1.537-.128 2.287l-6.21-.71c.058-.527.085-1.031.085-1.577v-.068l6.258.03zM108.081 32.917c-.592-1.124-1.315-2.167-2.17-3.098l5.804-5.19c1.29 1.427 2.394 3.018 3.29 4.741l-6.924 3.547zM79.84 56.595c-1.631-1.464-3.046-3.16-4.194-5.04l-4.367 2.664c.636 1.038 1.327 2.019 2.091 2.96l1.479-1.203s.667.854 1.471 1.67c.81.816 1.372 1.335 1.372 1.335l2.149-2.386zM105.004 18.164c.95.44 1.939 1.001 2.815 1.565l-4.158 6.423c-.647-.415-1.214-.735-1.914-1.056l3.257-6.932zM118.146 50.474c-.653 1.363-1.323 2.694-2.715 4.565l-1.643-1.221c1.276-1.706 1.939-3.026 2.497-4.202l1.861.858zM99.118 67.18c-1.363.207-2.758.315-4.178.315h-.058s.008-3.82.029-3.82c1.183 0 2.479-.124 3.612-.293l.595 3.799zM118.826 32.387c.138.467.283.941.395 1.418l3.466-.84c-.12-.537-.282-1.09-.435-1.616l-3.426 1.038zM101.21 11.135c-.404-.085-1.03-.189-1.436-.256l-.594 3.442c.374.06.932.178 1.301.254l.728-3.44zM127.513 39.78c0 .57-.014 1.16-.04 1.727l-3.45-.197c.025-.507.037-1.034.037-1.547l3.453.017zM90.359 74.909c-1.398-.18-2.243-.336-3.67-.674l.509-2.168c1.362.331 2.221.453 3.442.638l-.281 2.204zM75.563 5.343c-.926.524-1.807 1.068-2.685 1.663l3.054 4.52c.758-.51 1.51-.98 2.312-1.43l-2.681-4.753z" transform="translate(-869) translate(869 -6) translate(18 13.754)"/>
                        <g transform="translate(-869) translate(869 -6) translate(18 13.754) translate(101.658)">
                            <mask id="0jiit3sloh" fill="#fff">
                                <use xlink:href="#iae3bflsdg"/>
                            </mask>
                            <path fill="#00B3F0" d="M3.393.953C2.792.796 2.195.66 1.588.533l-.86 4.006c.535.112 1.1.265 1.628.4L3.393.953z" mask="url(#0jiit3sloh)"/>
                        </g>
                        <path fill="#00B3F0" d="M129.317 28.425c-.245-.74-.419-1.317-.706-2.039l5.292-2.079c.296.744.609 1.565.867 2.33l-5.453 1.788zM109.47 36.847c-.064-.307-.146-.658-.225-.957l-3.11.815c.073.27.138.545.193.824l3.142-.682zM79.921 47.723l-1.72.952c.376.701.812 1.418 1.27 2.06l3.368-2.399c-.505-.714-.937-1.451-1.311-2.252l-1.96.933.353.706zM83.546 30.305c.752-.914 1.603-1.71 2.55-2.417l1.929 2.573c-.728.543-1.415 1.187-1.994 1.886l-2.485-2.042z" transform="translate(-869) translate(869 -6) translate(18 13.754)"/>
                        <path fill="#BED747" d="M79.201 6.587c.442-.208 1.27-.567 1.719-.76l1.594 3.813c-.393.166-1.14.506-1.523.69L79.2 6.587zM87.377 52.525c-.52-.32-.752-.47-1.104-.727l-4.515 6.333c.464.336 1.012.702 1.686 1.115l3.933-6.721zM89.149 26.14c.24-.103.5-.207.747-.296l-.744-2.04c-.288.102-.563.218-.842.338l.839 1.997zM73.764 34.896c.088-.384.188-.762.291-1.135l6.648 1.882c-.062.22-.14.519-.194.744l-6.745-1.491zM98.536 63.371c.947-.146 2.495-.492 3.632-.85l1.154 3.682c-1.353.431-2.775.762-4.21.977l-.576-3.809zM73.524 23.663c-.202.268-.325.45-.52.725l2.711 1.883c.175-.25.283-.38.468-.622M85.21 68.735c-1.301-.438-2.199-.838-3.313-1.334l1.203-2.557c.966.459 1.988.87 3.011 1.215l-.902 2.676zM69.188 41.404c-.03-.535-.053-1.08-.053-1.624v-.063l-3.735.017c0 .623.029 1.325.065 1.937l3.723-.267zM110.387 20.595c-.691-.558-1.415-1.08-2.164-1.563l1.835-2.814c.82.526 1.608 1.095 2.366 1.701l-2.037 2.676zM76.055 61.95c-1.362-1.166-2.654-2.486-3.78-3.88l2.577-2.094c1.005 1.245 2.14 2.414 3.358 3.453l-2.155 2.52zM86.803 7.118c.6-.148 1.204-.28 1.816-.396l.78 4.037c-.536.1-1.071.216-1.598.348l-.998-3.989zM125.03 44.998l4.816.842c-.412 2.397-1.27 5.67-2.633 8.566l-1.6-.72.66-1.554-2.917-1.157c.753-1.905 1.318-3.905 1.675-5.977" transform="translate(-869) translate(869 -6) translate(18 13.754)"/>
                        <path fill="#EF4130" d="M96.962 28.348c.776.137 1.51.346 2.228.63l1.216-2.976c-.913-.379-1.99-.665-2.862-.813l-.582 3.159zM79.565 47.016c-.082-.175-.213-.468-.376-.87l-5.901 2.433c.163.392.338.813.521 1.197l5.758-2.753M73.49 36.321c.077-.49.17-.95.28-1.43l6.742 1.497c-.082.335-.147.65-.203.994l-6.818-1.06zM78.218 25.91c1.098-1.321 2.365-2.522 3.743-3.55l4.133 5.527c-.928.699-1.806 1.524-2.548 2.418l-5.328-4.396zM90.244 18.566c-.546.122-1.055.25-1.585.41l1.996 6.62c.218-.067.462-.14.687-.197l.089-.022c.17-.04.194-.05.302-.075l-1.49-6.736zM106.967 61.983c1.04-.565 2.022-1.205 2.968-1.903l-2.46-3.362c-.777.57-1.643 1.122-2.492 1.582l1.984 3.683zM117.198 47.329c.161-.472.325-.978.455-1.465l4.06 1.097s-.33 1.164-.525 1.735l-3.99-1.367zM119.534 38.261c-.035-.65-.1-1.132-.182-1.767l3.549-.448c.096.722.143 1.263.18 2l-3.547.215zM72.833 28.905c.198-.397.388-.766.607-1.15l-3.45-1.909c-.24.43-.488.892-.704 1.335l3.547 1.724zM95.54 17.184c.487.012 1.24.067 1.72.107l.377-3.625c-.575-.05-1.405-.111-1.989-.128l-.108 3.646z" transform="translate(-869) translate(869 -6) translate(18 13.754)"/>
                        <path fill="#44C8F5" d="M95.654 13.538c-.332-.007-1.473-.018-2.553.061l.27 3.64c.6-.04.73-.055 1.347-.055h.825l.11-3.646z" transform="translate(-869) translate(869 -6) translate(18 13.754)"/>
                        <path fill="#EF4130" d="M112.5 22.511c-.665-.68-1.368-1.318-2.113-1.916l2.037-2.676c.866.691 1.687 1.433 2.463 2.223L112.5 22.51zM122.586 60.407c.42-.553.706-.919 1.092-1.494l-3.314-2.217c-.342.516-.571.846-.946 1.338l3.168 2.373zM124.041 27.047c-.279-.638-.563-1.236-.884-1.853l4.585-2.346c.339.659.744 1.456 1.044 2.137l-4.745 2.062zM110.535 12.666c-1.525-.883-3.005-1.568-4.672-2.193l1.458-3.893c1.851.691 3.613 1.516 5.302 2.495l-2.088 3.59zM64.497 21.664c.641-1.075 1.383-2.178 2.13-3.178l-3.26-2.45c-.873 1.148-1.63 2.301-2.374 3.543l3.504 2.085zM85.45 46.46c-.98-1.389-1.657-2.978-1.95-4.726l-3.16.612c.384 2.19 1.265 4.242 2.5 5.987l2.61-1.873zM109.473 36.846c.191.952.286 1.857.286 2.865 0 .538-.028 1.125-.086 1.646l-3.187-.365c.039-.391.057-.828.057-1.229 0-.771-.07-1.51-.212-2.238l3.142-.68zM122.808 20.215c.288.406.556.808.825 1.227l-3.472 2.2c-.224-.346-.494-.74-.731-1.08l3.378-2.347z" transform="translate(-869) translate(869 -6) translate(18 13.754)"/>
                        <path fill="#BED747" d="M122.808 20.215c.081.117.157.231.239.346l.004-.002 1.127-.78c-.51-.775-1.308-1.824-1.88-2.503l-3.16 2.58c.51.616 1.006 1.235 1.465 1.891l2.205-1.532z" transform="translate(-869) translate(869 -6) translate(18 13.754)"/>
                        <path fill="#0072BC" d="M103.857 32.35c-.986-1.174-2.256-2.191-3.63-2.896l1.494-2.85c1.598.818 3.17 1.974 4.619 3.717l-2.483 2.028zM75.97 27.495c-.656 1.012-1.243 2.083-1.732 3.2L84.33 35.06c.252-.585.541-1.096.888-1.625l-9.248-5.94zM115.8 28.961c.228.435.458.913.657 1.361l-5.98 2.593c-.147-.328-.31-.673-.474-.989l5.797-2.965zM121.374 48.11c-.067.217-.132.424-.187.587l-2.91-1.007c-.14.39-.315.864-.417 1.115l3.31 1.308c.17-.425.497-1.437.643-1.875l-.439-.129zM73.524 23.663c.53-.7.933-1.182 1.525-1.83l2.458 2.208c-.522.574-.855.992-1.324 1.608l-2.66-1.986zM68.262 34.606c.063-.337.098-.524.173-.857l-2.148-.487c-.245 1.07-.424 2.057-.549 3.168l2.212.243c.077-.698.182-1.386.312-2.067M99.538 6.014c.817.111 1.63.251 2.43.42l-.85 4.02c-1.21-.254-2.448-.438-3.705-.538l.357-4.098c.593.051 1.18.116 1.768.196" transform="translate(-869) translate(869 -6) translate(18 13.754)"/>
                        <path fill="#0072BC" d="M99.538 6.014c.817.111 1.63.251 2.43.42l-.85 4.02c-1.21-.254-2.448-.438-3.705-.538l.357-4.098c.593.051 1.18.116 1.768.196M124.041 27.047c-.156-.359-.315-.705-.481-1.048l-1.298.645c.134.306.618 1.367.745 1.68l3.815-1.527c-.056-.149-.199-.465-.352-.806l-2.429 1.056zM96.661 51.256c-.53.082-1.214.13-1.769.136l.012 3.208c.738 0 1.552-.064 2.26-.168l-.503-3.176zM90.182 53.818c-.512-.173-1.174-.407-2.143-.913l-3.825 7.525c1.054.535 2.151.998 3.282 1.391l2.686-8.003zM102.53 15.107l.633-2.099h-.003c-.361-.111-.765-.217-1.136-.315l-.847 3.258s.688.179.987.275c.3.092.75.244.75.244l.381-1.11c-.254-.087-.51-.172-.765-.253" transform="translate(-869) translate(869 -6) translate(18 13.754)"/>
                        <path fill="#FFCC31" d="M127.513 39.78c0 .57-.014 1.15-.043 1.724l2.206.137c.034-.629.054-1.275.054-1.902 0-.624-.057-1.182-.09-1.8l-4.207.216c.032.56.041 1.054.041 1.618l2.039.007zM80.113 39.699c0-.225.011-.461.022-.682.06-1.165.254-2.293.568-3.375l3.096.867c-.31 1.06-.464 2.063-.464 3.173l-3.222.017zM109.758 39.71c0-.27-.01-.523-.022-.793l6.24-.305c.02.368.034.75.035 1.123l-6.253-.025zM79.928 47.725c-.123-.234-.247-.463-.36-.702l-3.686 1.763c.157.332.285.587.459.907l3.587-1.968zM69.264 42.345l-.085-.934 3.01-.207c.09 1.49.316 2.988.68 4.387l-5.559 1.485c-.378-1.434-.644-2.928-.796-4.44l2.75-.291zM90.456 16.345c-1.405.256-2.687.62-4.04 1.148l-1.21-3.156c1.718-.623 3.048-1.023 4.618-1.31l.632 3.318zM68.561 49.841l.24.596-1.809.74s.357.857.466 1.094l3.974-1.832c-.138-.31-.485-1.129-.613-1.445l-2.258.847zM112.5 22.511c.937.951 1.797 1.98 2.57 3.076l2.784-1.89c-.893-1.266-1.885-2.454-2.967-3.555L112.5 22.51zM63.737 26.125c.198-.45.412-.904.626-1.342l3.157 1.538c-.191.392-.382.805-.557 1.207l-3.226-1.403zM126.276 52.128c-.339.859-.684 1.646-1.087 2.47l-4.073-2.037c.338-.69.65-1.399.934-2.123l3.968 1.583.258.107zM107.675 70.446c.88-.37 1.367-.592 2.233-1.03l1.842 3.707s-.848.405-1.225.578c-.377.169-1.292.574-1.292.574l-1.558-3.829zM73.152 70.331c-.626-.448-1.236-.913-1.831-1.396l2.566-3.18c.538.438 1.056.845 1.622 1.25l-2.357 3.326zM116.238 11.473c-.425-.322-.887-.663-1.328-.965l-2.086 3.03c.22.154 1.028.722 1.207.856l2.207-2.92zM91.197 50.77c-.65-.222-1.404-.571-1.996-.897l-1.581 2.79c.817.469 1.657.854 2.562 1.161l1.015-3.055zM92.702 51.176c.725.144 2.188.215 2.188.215l.013 3.206c-1.007 0-1.835-.088-2.796-.27l.595-3.151zM104.523 46.321c-.18.262-.37.515-.568.761l2.495 2.031c.284-.348.51-.656.763-1.026l-2.69-1.766zM106.134 36.727c-.047-.168-.096-.336-.152-.5l3.084-.954c.063.199.117.416.17.618M104.537 28.488c-.228-.197-.49-.402-.728-.584l4.689-6.204c.36.272.782.595 1.122.885l-5.083 5.903zM104.983 58.307c-2.034 1.103-4.113 1.857-6.885 2.31l-.619-4.04s1.556-.276 2.604-.608c.771-.243 1.77-.67 1.77-.67l-2.194-4.915c.506-.224.935-.45 1.4-.743l1.695 2.735.954-.648c.23-.168.411-.311.636-.493l3.948 4.842c-1.237 1.08-3.31 2.23-3.31 2.23" transform="translate(-869) translate(869 -6) translate(18 13.754)"/>
                        <path fill="#EF4130" d="M102.754 52.376l.953-.648c.001 0 .005-.005.009-.005l-1.912-2.588c-.225.166-.505.349-.745.499l.163.267 1.532 2.475z" transform="translate(-869) translate(869 -6) translate(18 13.754)"/>
                        <path fill="#8AC75B" d="M104.954 68.632c.777-.272 1.394-.523 1.934-.747l-1.395-3.35c-.474.194-1.265.494-1.749.664l1.21 3.433zM75.848 16.718c-1.785 1.48-3.395 3.162-4.795 5.012l-3.312-2.432c1.591-2.115 3.428-4.037 5.462-5.73l2.645 3.15zM104.746 33.566c-.282-.446-.556-.82-.894-1.221l2.492-2.023c.422.503.782 1 1.133 1.557l-2.73 1.687zM107.236 48.1c.926-1.369 1.6-2.888 2.03-4.53l-3.094-.842c-.341 1.305-.916 2.532-1.659 3.615l2.723 1.756zM98.282 25.342c-1.1-.246-2.16-.382-3.315-.382-.71 0-1.406.043-2.09.14l-.637-4.6c.844-.115 1.866-.184 2.737-.184 1.453 0 3.023.182 4.378.49l-1.06 4.51M80.242 41.682c.1.798.26 1.54.48 2.293l-3.958 1.198c-.495-1.694-.882-3.896-.761-6.304l4.136.181c-.074 1.344.091 2.578.091 2.578" transform="translate(-869) translate(869 -6) translate(18 13.754)"/>
                        <path fill="#00AB4E" d="M97.553 25.194c-.331-.058-1.201-.235-2.613-.235-.302 0-.598.01-.896.027l.191 3.207c.235-.013.47-.019.705-.019.69 0 1.368.059 2.025.177l.588-3.157zM89.484 29.534c.807-.425 1.747-.79 2.654-1.02l-.777-3.117c-1.308.314-2.362.758-3.393 1.303l1.516 2.834zM80.121 39.695s-.02.959.112 1.987l3.192-.44c-.06-.478-.09-1.069-.09-1.563l-3.214.016zM108.99 44.5c.103-.304.194-.614.277-.93l6.666 1.818s-.26.92-.415 1.363l-6.529-2.251zM83.45 55.748c-.938-.68-1.867-1.51-2.687-2.378l3.451-3.372c.644.682 1.333 1.277 2.061 1.803 0 0-2.81 3.956-2.825 3.947M103.49 11.933c1.482.454 2.91 1.02 4.283 1.696l-1.478 2.972c-1.205-.592-2.462-1.092-3.766-1.493l.961-3.175zM65.465 41.669l-.03-.349-1.532.08c.025.372.1 1.124.136 1.494l5.22-.546c-.032-.322-.054-.621-.071-.948l-3.723.269zM131.912 47.591c.148-.693.295-1.347.397-2.055l4.04.64c-.113.784-.263 1.49-.422 2.26l-4.015-.845zM84.37.887c-.78.208-1.55.444-2.305.698l1.295 3.867c.685-.23 1.383-.44 2.084-.632L84.37.887zM96.665 51.256c.594-.088 1.222-.239 1.784-.415l1.63 5.131c-.864.275-1.68.475-2.6.608l-.814-5.324z" transform="translate(-869) translate(869 -6) translate(18 13.754)"/>
                        <path fill="#00AB4E" d="M89.158 26.136c-.39.165-.822.364-1.192.558l-2.203-4.106c.477-.255 1.071-.533 1.573-.747l1.822 4.295zM99.27 25.6c-.316-.094-.662-.19-.986-.263l1.655-7.073c.492.077 1.04.217 1.49.412L99.27 25.6zM124.4 9.986l-2.607 2.615c-.67-.656-1.283-1.222-1.995-1.83l2.419-2.795c1.107.936 2.184 2.01 2.184 2.01M81.877 12.171c-.648.303-1.293.641-1.906.985l-2.404-4.26c.706-.394 1.451-.784 2.195-1.136l2.115 4.411zM81.898 67.401l.605-1.287c-.302-.144-.77-.364-1.063-.515l-1.7 3.166c.977.505 2.062 1.015 3.095 1.425l.802-2.037h.003c-.586-.24-1.131-.48-1.742-.752" transform="translate(-869) translate(869 -6) translate(18 13.754)"/>
                        <path fill="#44C8F5" d="M92.111 54.328c.933.184 1.813.27 2.8.27.35 0 .823-.017 1.167-.04l.552 7.133c-.566.044-1.156.098-1.73.098-1.428 0-2.802-.14-4.15-.4l1.361-7.061zM80.93 14.858c-1.525.85-2.875 1.805-4.212 2.912l2.118 2.557c1.159-.973 2.429-1.805 3.759-2.55l-1.664-2.919zM122.758 42.864c.059-.528.106-1.084.133-1.622l-3.345-.19c-.022.485-.08.955-.13 1.435l3.342.377zM117.91 64.909c-1.59 1.45-3.223 2.708-5.069 3.837l-2.154-3.5c1.62-.992 3.055-2.092 4.446-3.363l2.777 3.026zM123.084 30.465c.582 1.76.98 3.567 1.226 5.451l4.087-.515c-.281-2.157-.751-4.203-1.413-6.216l-3.9 1.28zM69.287 27.18c-.973 1.974-1.706 4.04-2.206 6.241l-.005.02 1.359.309c-.075.332-.11.519-.173.856-.003.027-.01.052-.013.078l2.494.464c.42-2.194 1.134-4.295 2.09-6.244l-3.546-1.725zM115.102 12.974l-1.072 1.419c-.186-.14-.371-.274-.556-.408l-1.106 1.452c.483.367 1.579 1.206 2.04 1.598l2.322-2.702c-.39-.335-1.07-.909-1.628-1.36M109.53 37.208c-.096-.563-.173-.889-.293-1.323l7.534-1.97c.174.65.324 1.325.441 1.999l-7.682 1.294zM90.655 25.588c-.26.076-.513.164-.768.255l-2.345-6.49c.354-.127.757-.263 1.116-.373l1.997 6.608zM106.96 54.441c.598-.494 1.188-1.045 1.721-1.606l-2.994-2.857c-.434.464-.85.85-1.344 1.253l2.617 3.21z" transform="translate(-869) translate(869 -6) translate(18 13.754)"/>
                        <path fill="#F58220" d="M104.344 51.231c.493-.403.91-.788 1.344-1.254l.065.066c0-.003.002-.003.002-.003l-2.39-2.285c-.48.505-.997.967-1.56 1.38l1.91 2.587c.228-.165.412-.308.63-.487l.046.057.001-.002-.048-.059z" transform="translate(-869) translate(869 -6) translate(18 13.754)"/>
                    </g>
                </g>
            </g>
        </g>
    </g>
</svg>
